<svg width="37" height="28" viewBox="0 0 37 28" fill="none" xmlns="http://www.w3.org/2000/svg">
<path d="M9.72261 22.1665L4.62987 20.491C3.56305 20.1417 2.4202 20.7207 2.07014 21.7835C1.72008 22.8472 2.29903 23.9932 3.36268 24.3432L11.0672 26.8776C11.822 27.1239 12.6536 26.9101 13.1929 26.324L17.1537 22.0187L23.0042 22.7173L28.815 26.6329C29.1627 26.8673 29.5571 26.979 29.9468 26.979C30.5978 26.979 31.2385 26.6654 31.6298 26.0848C32.2555 25.1558 32.0099 23.8958 31.0817 23.2701L24.8646 19.0804C24.5969 18.9007 24.2911 18.7866 23.9712 18.7486L18.8415 18.1364L21.5025 14.8924L25.8466 16.9215C26.1167 17.0482 26.4105 17.1123 26.7044 17.1123C26.896 17.1123 27.0877 17.0854 27.2746 17.0308L33.9654 15.0706C35.0401 14.7554 35.6555 13.6291 35.3411 12.5544C35.0266 11.4805 33.9004 10.8674 32.8249 11.1787L26.8691 12.9243L15.2624 7.50305C14.7532 7.26308 14.1639 7.24961 13.6412 7.46187L7.49056 9.96299C6.45304 10.3843 5.95409 11.5676 6.37622 12.6043C6.79835 13.641 7.98239 14.1431 9.01752 13.7186L14.3484 11.5509L16.9527 12.7672L12.6583 18.0025C11.936 18.8826 11.9419 20.1144 12.591 20.9895L11.0933 22.6175L9.72261 22.1665Z" stroke="#FFF7F1" stroke-width="2" stroke-miterlimit="10" stroke-linecap="round" stroke-linejoin="round"/>
<path d="M23.6004 1.46594C21.705 1.46594 20.1685 3.00241 20.1685 4.89786C20.1685 6.7933 21.705 8.32977 23.6004 8.32977C25.4958 8.32977 27.0323 6.7933 27.0323 4.89786C27.0323 3.00241 25.4958 1.46594 23.6004 1.46594Z" stroke="#FFF7F1" stroke-width="2" stroke-miterlimit="10" stroke-linecap="round" stroke-linejoin="round"/>
</svg>
