<svg width="36" height="28" viewBox="0 0 36 28" fill="none" xmlns="http://www.w3.org/2000/svg">
<path fill-rule="evenodd" clip-rule="evenodd" d="M15.2654 6.59811L15.2637 6.59731C14.4988 6.23742 13.6187 6.21949 12.8412 6.53518L6.69061 9.0363C5.14136 9.66573 4.39631 11.4326 5.0268 12.9811C5.65571 14.5256 7.4215 15.2791 8.97227 14.6441L8.9737 14.6435L13.8975 12.6414L14.9397 13.1281L11.4619 17.368C10.6313 18.3802 10.4839 19.7162 10.9451 20.8412L10.3704 21.4658L4.51776 19.5403C2.92693 19.0194 1.21969 19.8836 0.697007 21.4705C0.174168 23.0592 1.03907 24.7702 2.62695 25.2928L10.3315 27.8272L10.3337 27.8279C11.4579 28.1948 12.6992 27.877 13.5056 27.0007L17.1199 23.072L22.2224 23.6812L27.833 27.4618C28.3517 27.8116 28.9421 27.9787 29.5235 27.9787C30.4926 27.9787 31.4509 27.5113 32.036 26.6431C32.9699 25.2564 32.6036 23.3749 31.2173 22.4405L25.0001 18.2508L24.9988 18.2499C24.6011 17.9828 24.1446 17.8122 23.6659 17.7552L20.3488 17.3593L21.3598 16.1268L24.9986 17.8264L24.9998 17.827C25.4042 18.0165 25.8428 18.112 26.2811 18.112C26.5667 18.112 26.8534 18.0717 27.1325 17.9901L33.8236 16.0298C35.4283 15.5591 36.3468 13.8773 35.8775 12.2731C35.407 10.666 33.7242 9.75457 32.1237 10.2178L32.1204 10.2187L26.5269 11.8581L15.2654 6.59811ZM26.0226 13.8299L14 8.5L7.44399 10.889C6.91851 11.1024 6.66541 11.7019 6.87913 12.2268C7.09429 12.7552 7.69567 13.006 8.21484 12.7931L8.21759 12.7919L13.5485 10.6242C13.8063 10.5194 14.0962 10.5268 14.3484 10.6445L16.9526 11.8608C17.2324 11.9915 17.4361 12.2442 17.5046 12.5453C17.573 12.8465 17.4984 13.1623 17.3026 13.4011L13.0082 18.6364C12.5876 19.149 12.585 19.8731 12.9709 20.3935C13.2568 20.7789 13.2285 21.3131 12.9037 21.6662L11.406 23.2942C11.1404 23.583 10.7303 23.6897 10.3576 23.567L3.89547 21.441C3.35295 21.2638 2.77421 21.5574 2.59676 22.0958C2.41948 22.6345 2.71262 23.2155 3.25204 23.393L10.9542 25.9266L10.9552 25.927C11.3402 26.0522 11.7617 25.9422 12.0337 25.6466L15.9945 21.3413C16.212 21.1049 16.53 20.9874 16.849 21.0254L22.6995 21.724C22.8571 21.7428 23.008 21.7989 23.1397 21.8876L28.9506 25.8033C29.1271 25.9223 29.3258 25.9787 29.5235 25.9787C29.8564 25.9787 30.1799 25.8183 30.3773 25.5256C30.6944 25.0544 30.5695 24.4158 30.0995 24.099L23.8829 19.9097C23.7456 19.8177 23.5901 19.7603 23.4294 19.7412L18.2998 19.129C17.9371 19.0857 17.6269 18.8481 17.4905 18.5093C17.3542 18.1704 17.4135 17.7842 17.6451 17.5018L20.3061 14.2578C20.5959 13.9045 21.0884 13.7926 21.5025 13.986L25.8482 16.0158C25.9836 16.0793 26.1322 16.112 26.2811 16.112C26.3788 16.112 26.4759 16.0983 26.5707 16.0706L33.261 14.1106C33.8055 13.9507 34.1175 13.38 33.958 12.8348C33.7998 12.2946 33.231 11.9802 32.681 12.1385L32.6796 12.1389L26.7271 13.8835C26.4936 13.952 26.2431 13.9329 26.0226 13.8299Z" fill="#FFF7F1"/>
<path fill-rule="evenodd" clip-rule="evenodd" d="M18.7453 4.89773C18.7453 2.45 20.7295 0.46582 23.1772 0.46582C25.6249 0.46582 27.6092 2.44999 27.6092 4.89773C27.6092 7.34548 25.6249 9.32965 23.1772 9.32965C20.7295 9.32965 18.7453 7.34547 18.7453 4.89773ZM23.1772 2.46582C21.8341 2.46582 20.7453 3.55459 20.7453 4.89773C20.7453 6.24088 21.8341 7.32965 23.1772 7.32965C24.5204 7.32965 25.6092 6.24087 25.6092 4.89773C25.6092 3.55459 24.5204 2.46582 23.1772 2.46582Z" fill="#FFF7F1"/>
</svg>
