<svg width="336" height="466" viewBox="0 0 336 466" fill="none" xmlns="http://www.w3.org/2000/svg">
<path fill-rule="evenodd" clip-rule="evenodd" d="M156.602 78.5231C151.611 72.6642 148.233 65.4841 148.797 57.4385C150.424 34.257 182.693 39.3567 188.97 51.0567C195.247 62.7567 194.501 92.4348 186.389 94.526C183.153 95.3599 176.261 93.3171 169.247 89.0891L173.65 120.238H147.652L156.602 78.5231Z" fill="#B28B67"/>
<path fill-rule="evenodd" clip-rule="evenodd" d="M174.152 37.5719C170.726 37.01 161.5 36.6237 159.799 36.6239C158.712 36.6239 157.534 36.8723 156.89 35.874C156.362 35.0565 156.555 33.6738 156.398 32.7251C156.215 31.6231 155.956 30.5352 155.693 29.4501C154.946 26.3623 153.816 23.4247 152.235 20.6666C149.269 15.4921 144.924 11.439 139.438 9.08042C133.38 6.47623 126.525 5.87993 120.009 6.40815C113.036 6.97328 106.724 9.2752 100.14 11.4415C93.8662 13.5057 87.2949 14.3182 80.733 13.3102C74.1217 12.2946 69.1262 8.71132 63.5497 5.31031C57.8409 1.82849 51.3168 -0.448741 44.568 0.0747408C38.2682 0.563557 32.4619 3.16475 27.2526 6.63959C22.3787 9.89071 18.3571 13.8022 16.0866 19.3074C13.644 25.2293 13.6463 31.7296 17.6629 36.9631C23.4848 44.5492 34.2931 46.511 43.285 46.316C48.4861 46.2035 53.5943 45.254 58.5047 43.527C65.0534 41.2235 70.7125 37.3195 76.839 34.1519C79.7141 32.6655 82.686 31.4447 85.8011 30.5654C88.824 29.7117 91.8013 29.3201 94.5382 31.1462C97.4335 33.078 100.028 34.9757 103.34 36.185C106.518 37.3452 109.883 37.9941 113.269 37.9679C119.856 37.9171 126.349 35.8648 132.746 34.4901C137.963 33.3693 143.544 32.2523 148.863 33.3297C151.082 33.7793 154.324 34.7076 155.125 37.014C141.634 39.4591 136.336 56.1437 140.139 68.3917C142.192 75.0025 154.531 82.7303 159.328 79.255C162.368 77.0532 160.523 74.1628 159.328 72.2546C157.041 68.6005 156.259 63.9066 160.491 61.3625C164.141 59.1683 167.979 64.3789 168.051 64.3732C169.055 64.2941 177.723 59.3916 183.696 52.2375C189.588 52.5868 190.482 48.7018 189.075 45.5245C187.668 42.3473 178.887 38.3488 174.152 37.5719Z" fill="#191847"/>
<path fill-rule="evenodd" clip-rule="evenodd" d="M141.165 210.17L221.655 344.736L282 458.5H294.997L193.889 210.17L141.165 210.17Z" fill="#997659"/>
<path fill-rule="evenodd" clip-rule="evenodd" d="M274.052 453.248C272.84 456.483 272.234 458.904 272.234 460.51C272.234 462.463 272.56 465.313 273.211 469.061C275.477 469.061 295.842 469.061 334.306 469.061C335.894 463.812 334.978 460.979 331.557 460.56C328.136 460.142 325.295 459.764 323.032 459.426L294.635 446.767C294.089 446.523 293.449 446.769 293.205 447.315C293.201 447.325 293.197 447.334 293.193 447.343L291.368 451.771C288.201 453.249 285.628 453.987 283.648 453.987C282.039 453.987 279.818 453.338 276.984 452.039L276.984 452.039C275.896 451.54 274.61 452.017 274.112 453.105C274.09 453.152 274.07 453.2 274.052 453.248Z" fill="#E4E4E4"/>
<path fill-rule="evenodd" clip-rule="evenodd" d="M265.24 440.283L290.306 432.7C279.324 399.87 265.864 363.741 249.926 324.314C233.988 284.888 216.871 246.84 198.575 210.17H127.78C148.121 256.555 169.685 298.702 192.472 336.61C215.26 374.518 239.516 409.076 265.24 440.283Z" fill="#DB2721"/>
<path fill-rule="evenodd" clip-rule="evenodd" d="M135.875 210.17C128.278 257.458 113.626 317.873 112.243 319.737C111.321 320.98 78.1345 332.1 12.6831 353.098L15.4908 364.56C93.5414 353.299 134.667 344.562 138.869 338.349C145.171 329.03 176.638 255.409 188.826 210.17H135.875Z" fill="#B28B67"/>
<path fill-rule="evenodd" clip-rule="evenodd" d="M35.6904 343.191L40.6358 361.651C99.0131 366.771 134.782 363.071 147.943 350.552C161.104 338.033 176.103 291.239 192.941 210.17H125.434C114.766 276.555 108.802 311.14 107.541 313.927C106.281 316.713 82.3308 326.468 35.6904 343.191Z" fill="#FF4133"/>
<path fill-rule="evenodd" clip-rule="evenodd" d="M15.8883 348.324C12.492 347.692 10.003 347.515 8.4213 347.794C6.49761 348.134 3.74698 348.949 0.169411 350.241C0.562904 352.472 4.0993 372.528 10.7786 410.408C16.2233 411.06 18.8547 409.666 18.6729 406.224C18.4911 402.783 18.3698 399.919 18.309 397.632L25.8451 367.469C25.9901 366.888 25.6371 366.3 25.0567 366.155C25.0468 366.153 25.0368 366.15 25.0268 366.148L20.3493 365.119C18.3444 362.258 17.1701 359.852 16.8263 357.902C16.547 356.318 16.801 354.017 17.5884 351.001L17.5884 351.001C17.8905 349.843 17.197 348.659 16.0392 348.357C15.9893 348.344 15.939 348.333 15.8883 348.324Z" fill="#E4E4E4"/>
<path fill-rule="evenodd" clip-rule="evenodd" d="M234.367 192.958L265.052 222.892C273.981 226.701 281.296 230.906 286.999 235.508C288.281 237.055 289.677 240.019 283.644 238.693C277.61 237.366 271.203 236.243 270.069 238.205C268.935 240.167 272.277 243.174 270.181 245.742C268.784 247.454 264.085 242.008 256.084 229.405L224.175 210.592L234.367 192.958ZM98.1661 197.179L120.803 197.268C106.826 242.389 99.2801 266.329 98.1661 269.09C95.6595 275.302 100.964 284.762 103.232 289.846C95.8443 293.152 96.6315 280.909 87.3122 285.245C78.8059 289.202 72.3353 296.373 62.5075 290.309C61.2993 289.563 59.9752 286.756 63.1743 284.563C71.1444 279.098 82.6298 269.533 84.1816 266.385C86.2979 262.091 90.9594 239.023 98.1661 197.179Z" fill="#B28B67"/>
<path fill-rule="evenodd" clip-rule="evenodd" d="M162.495 102.194L171.862 100.587C187.989 140.873 216.144 177.477 256.328 210.4L225.963 247.291C185.784 200.412 161.017 152.047 162.495 102.194Z" fill="#191847"/>
<path fill-rule="evenodd" clip-rule="evenodd" d="M121.664 219.905H205.072C185.748 172.921 176.086 133.008 176.086 100.167L150.926 96.418C131.153 128.22 125.568 167.374 121.664 219.905Z" fill="#DDE3E9"/>
<path fill-rule="evenodd" clip-rule="evenodd" d="M150.393 96.4358C150.396 96.4298 150.4 96.4239 150.403 96.418H152.045C154.011 96.4856 157.004 96.6076 161.025 96.7837L167.105 114.158C167.748 135.341 171.503 178.03 178.371 242.226H123.696C123.839 246.66 124.075 251.135 124.405 255.652H83.7505C89.8316 187.045 112.039 133.967 150.373 96.418L150.393 96.4358V96.4358Z" fill="#2F3676"/>
<path fill-rule="evenodd" clip-rule="evenodd" d="M127.307 185.495C128.863 213.133 132.759 232.186 138.995 242.653H123.71C123.04 222.768 124.24 203.715 127.307 185.495V185.495Z" fill="black" fill-opacity="0.1"/>
<path fill-rule="evenodd" clip-rule="evenodd" d="M135.865 209.073L162.826 196.54V209.073H135.865Z" fill="white" fill-opacity="0.2"/>
</svg>
