<svg width="340" height="71" viewBox="0 0 340 71" fill="none" xmlns="http://www.w3.org/2000/svg">
<path d="M82.8687 63.6H76.8207V30.192H82.8687V33.648H83.7327C84.3727 32.336 85.3007 31.328 86.5167 30.624C87.7327 29.888 89.2847 29.52 91.1727 29.52C92.5807 29.52 93.9087 29.792 95.1567 30.336C96.4367 30.88 97.5407 31.68 98.4687 32.736C99.4287 33.76 100.181 35.024 100.725 36.528C101.301 38.032 101.589 39.744 101.589 41.664V42.528C101.589 44.48 101.317 46.208 100.773 47.712C100.229 49.216 99.4927 50.496 98.5647 51.552C97.6367 52.576 96.5327 53.36 95.2527 53.904C94.0047 54.416 92.6447 54.672 91.1727 54.672C90.0847 54.672 89.1407 54.56 88.3407 54.336C87.5407 54.112 86.8367 53.808 86.2287 53.424C85.6527 53.04 85.1567 52.608 84.7407 52.128C84.3567 51.616 84.0207 51.088 83.7327 50.544H82.8687V63.6ZM89.2047 48.912C91.0927 48.912 92.6127 48.336 93.7647 47.184C94.9487 46 95.5407 44.4 95.5407 42.384V41.808C95.5407 39.792 94.9487 38.208 93.7647 37.056C92.6127 35.872 91.0927 35.28 89.2047 35.28C87.3167 35.28 85.7807 35.888 84.5967 37.104C83.4447 38.288 82.8687 39.856 82.8687 41.808V42.384C82.8687 44.336 83.4447 45.92 84.5967 47.136C85.7807 48.32 87.3167 48.912 89.2047 48.912ZM122.867 50.544C122.227 52.048 121.331 53.12 120.179 53.76C119.027 54.368 117.683 54.672 116.147 54.672C114.707 54.672 113.347 54.4 112.067 53.856C110.819 53.312 109.715 52.512 108.755 51.456C107.795 50.4 107.027 49.12 106.451 47.616C105.907 46.112 105.635 44.4 105.635 42.48V41.712C105.635 39.824 105.907 38.128 106.451 36.624C106.995 35.12 107.731 33.84 108.659 32.784C109.587 31.728 110.659 30.928 111.875 30.384C113.123 29.808 114.451 29.52 115.859 29.52C117.555 29.52 118.915 29.808 119.939 30.384C120.995 30.96 121.827 31.856 122.435 33.072H123.299V30.192H129.347V46.8C129.347 47.76 129.779 48.24 130.643 48.24H131.555V54H127.427C126.339 54 125.443 53.68 124.739 53.04C124.067 52.4 123.731 51.568 123.731 50.544H122.867ZM117.491 48.912C119.251 48.912 120.659 48.336 121.715 47.184C122.771 46 123.299 44.4 123.299 42.384V41.808C123.299 39.792 122.771 38.208 121.715 37.056C120.659 35.872 119.251 35.28 117.491 35.28C115.731 35.28 114.323 35.872 113.267 37.056C112.211 38.208 111.683 39.792 111.683 41.808V42.384C111.683 44.4 112.211 46 113.267 47.184C114.323 48.336 115.731 48.912 117.491 48.912ZM141.65 63.6H135.602V30.192H141.65V33.648H142.514C143.154 32.336 144.082 31.328 145.298 30.624C146.514 29.888 148.066 29.52 149.954 29.52C151.362 29.52 152.69 29.792 153.938 30.336C155.218 30.88 156.322 31.68 157.25 32.736C158.21 33.76 158.962 35.024 159.506 36.528C160.082 38.032 160.37 39.744 160.37 41.664V42.528C160.37 44.48 160.098 46.208 159.554 47.712C159.01 49.216 158.274 50.496 157.346 51.552C156.418 52.576 155.314 53.36 154.034 53.904C152.786 54.416 151.426 54.672 149.954 54.672C148.866 54.672 147.922 54.56 147.122 54.336C146.322 54.112 145.618 53.808 145.01 53.424C144.434 53.04 143.938 52.608 143.522 52.128C143.138 51.616 142.802 51.088 142.514 50.544H141.65V63.6ZM147.986 48.912C149.874 48.912 151.394 48.336 152.546 47.184C153.73 46 154.322 44.4 154.322 42.384V41.808C154.322 39.792 153.73 38.208 152.546 37.056C151.394 35.872 149.874 35.28 147.986 35.28C146.098 35.28 144.562 35.888 143.378 37.104C142.226 38.288 141.65 39.856 141.65 41.808V42.384C141.65 44.336 142.226 45.92 143.378 47.136C144.562 48.32 146.098 48.912 147.986 48.912ZM171.569 44.064C171.601 44.768 171.761 45.424 172.049 46.032C172.369 46.608 172.785 47.12 173.297 47.568C173.841 47.984 174.449 48.32 175.121 48.576C175.825 48.8 176.561 48.912 177.329 48.912C178.833 48.912 179.985 48.656 180.785 48.144C181.585 47.6 182.161 46.96 182.513 46.224L187.697 49.104C187.409 49.712 187.009 50.352 186.497 51.024C185.985 51.664 185.313 52.256 184.481 52.8C183.681 53.344 182.689 53.792 181.505 54.144C180.353 54.496 178.993 54.672 177.425 54.672C175.633 54.672 174.001 54.384 172.529 53.808C171.057 53.232 169.777 52.4 168.689 51.312C167.633 50.224 166.801 48.896 166.193 47.328C165.617 45.76 165.329 43.984 165.329 42V41.712C165.329 39.888 165.633 38.224 166.241 36.72C166.881 35.216 167.745 33.936 168.833 32.88C169.921 31.824 171.185 31.008 172.625 30.432C174.097 29.824 175.665 29.52 177.329 29.52C179.377 29.52 181.137 29.888 182.609 30.624C184.081 31.328 185.297 32.24 186.257 33.36C187.217 34.448 187.921 35.664 188.369 37.008C188.817 38.32 189.041 39.6 189.041 40.848V44.064H171.569ZM177.281 34.992C175.745 34.992 174.497 35.392 173.537 36.192C172.577 36.96 171.953 37.856 171.665 38.88H182.897C182.705 37.76 182.097 36.832 181.073 36.096C180.081 35.36 178.817 34.992 177.281 34.992ZM194.479 30.192H204.559V33.648H205.423C205.871 32.336 206.623 31.328 207.679 30.624C208.767 29.888 210.063 29.52 211.567 29.52C213.935 29.52 215.839 30.272 217.279 31.776C218.719 33.248 219.439 35.504 219.439 38.544V39.6L213.199 40.176V39.504C213.199 38.192 212.863 37.152 212.191 36.384C211.519 35.584 210.511 35.184 209.167 35.184C207.823 35.184 206.767 35.648 205.999 36.576C205.231 37.504 204.847 38.832 204.847 40.56V48.24H210.319V54H193.903V48.24H198.799V35.952H194.479V30.192ZM236.062 48.912C237.278 48.912 238.27 48.736 239.038 48.384C239.838 48 240.446 47.504 240.862 46.896C241.31 46.256 241.614 45.536 241.774 44.736C241.934 43.904 242.014 43.056 242.014 42.192V41.328H248.35V42.192C248.35 46.192 247.294 49.28 245.182 51.456C243.102 53.6 240.062 54.672 236.062 54.672C232.222 54.672 229.182 53.504 226.942 51.168C224.702 48.832 223.582 45.424 223.582 40.944V33.456C223.582 31.312 223.87 29.392 224.446 27.696C225.022 25.968 225.854 24.528 226.942 23.376C228.03 22.192 229.342 21.296 230.878 20.688C232.414 20.048 234.142 19.728 236.062 19.728C238.046 19.728 239.806 20.016 241.342 20.592C242.878 21.168 244.158 22 245.182 23.088C246.238 24.176 247.022 25.488 247.534 27.024C248.078 28.56 248.35 30.288 248.35 32.208V33.072H242.014V32.208C242.014 31.408 241.918 30.608 241.726 29.808C241.534 29.008 241.214 28.288 240.766 27.648C240.318 27.008 239.71 26.496 238.942 26.112C238.174 25.696 237.214 25.488 236.062 25.488C235.006 25.488 234.094 25.696 233.326 26.112C232.558 26.496 231.918 27.04 231.406 27.744C230.894 28.416 230.51 29.216 230.254 30.144C230.03 31.04 229.918 31.984 229.918 32.976V41.424C229.918 42.512 230.03 43.52 230.254 44.448C230.478 45.344 230.83 46.128 231.31 46.8C231.79 47.472 232.414 48 233.182 48.384C233.982 48.736 234.942 48.912 236.062 48.912ZM254.268 48.24H262.62V26.16H254.556V20.4H268.668V48.24H276.444V54H254.268V48.24ZM284.235 48.24H292.299V35.952H284.811V30.192H298.347V48.24H305.259V54H284.235V48.24ZM299.835 23.136C299.835 23.776 299.707 24.384 299.451 24.96C299.227 25.504 298.907 25.984 298.491 26.4C298.075 26.784 297.579 27.104 297.003 27.36C296.459 27.584 295.883 27.696 295.275 27.696C294.635 27.696 294.043 27.584 293.499 27.36C292.955 27.104 292.475 26.784 292.059 26.4C291.643 25.984 291.307 25.504 291.051 24.96C290.827 24.384 290.715 23.776 290.715 23.136C290.715 22.496 290.827 21.904 291.051 21.36C291.307 20.784 291.643 20.304 292.059 19.92C292.475 19.504 292.955 19.184 293.499 18.96C294.043 18.704 294.635 18.576 295.275 18.576C295.883 18.576 296.459 18.704 297.003 18.96C297.579 19.184 298.075 19.504 298.491 19.92C298.907 20.304 299.227 20.784 299.451 21.36C299.707 21.904 299.835 22.496 299.835 23.136ZM317.994 63.6H311.946V30.192H317.994V33.648H318.858C319.498 32.336 320.426 31.328 321.642 30.624C322.858 29.888 324.41 29.52 326.298 29.52C327.706 29.52 329.034 29.792 330.282 30.336C331.562 30.88 332.666 31.68 333.594 32.736C334.554 33.76 335.306 35.024 335.85 36.528C336.426 38.032 336.714 39.744 336.714 41.664V42.528C336.714 44.48 336.442 46.208 335.898 47.712C335.354 49.216 334.618 50.496 333.69 51.552C332.762 52.576 331.658 53.36 330.378 53.904C329.13 54.416 327.77 54.672 326.298 54.672C325.21 54.672 324.266 54.56 323.466 54.336C322.666 54.112 321.962 53.808 321.354 53.424C320.778 53.04 320.282 52.608 319.866 52.128C319.482 51.616 319.146 51.088 318.858 50.544H317.994V63.6ZM324.33 48.912C326.218 48.912 327.738 48.336 328.89 47.184C330.074 46 330.666 44.4 330.666 42.384V41.808C330.666 39.792 330.074 38.208 328.89 37.056C327.738 35.872 326.218 35.28 324.33 35.28C322.442 35.28 320.906 35.888 319.722 37.104C318.57 38.288 317.994 39.856 317.994 41.808V42.384C317.994 44.336 318.57 45.92 319.722 47.136C320.906 48.32 322.442 48.912 324.33 48.912Z" fill="#4C4C4C"/>
<path d="M52.3887 27.9511C51.4672 27.0175 49.9772 27.0217 49.0606 27.9602L20.7711 56.9304C17.1009 60.6688 11.1399 60.6688 7.46287 56.9254C3.78858 53.181 3.78858 47.1094 7.46332 43.3665L36.5902 13.5434C38.8816 11.2095 42.6069 11.2095 44.905 13.5484C47.2024 15.8884 47.2024 19.6825 44.9044 22.0231L20.7755 46.5995C20.774 46.6011 20.7727 46.6029 20.7711 46.6045C19.8519 47.5356 18.3663 47.5344 17.4489 46.6C16.53 45.664 16.53 44.1471 17.4489 43.2111L29.0957 31.3457C30.0146 30.4095 30.0145 28.8918 29.0954 27.9558C28.1763 27.0199 26.6862 27.02 25.7673 27.9562L14.1206 39.8213C11.3638 42.6293 11.3638 47.1817 14.1208 49.9898C16.8777 52.7979 21.3472 52.7979 24.1042 49.9898C24.1074 49.9865 24.1099 49.983 24.113 49.9798L48.2325 25.4128C52.3685 21.2 52.3685 14.3706 48.2325 10.1578C44.0958 5.94742 37.3913 5.94742 33.2576 10.1578L4.13077 39.9811C-1.37758 45.5917 -1.37758 54.6979 4.13474 60.3153C9.65071 65.9307 18.5911 65.9307 24.1038 60.3157L52.3978 31.341C53.3142 30.4024 53.3101 28.8847 52.3887 27.9511Z" fill="#DB2721"/>
</svg>
